<?xml version="1.0" encoding="UTF-8"?>
<svg version="1.1" xmlns="http://www.w3.org/2000/svg" width="338" height="350" viewBox="0 0 338 350">
<path d="M0 0 C11.38075102 8.81035851 20.65372635 20.41529792 22.62890625 35.03515625 C23.96223145 51.14246538 21.76182996 64.94598609 11.62890625 78.03515625 C2.53200866 88.77170263 -9.16796112 97.02500961 -23.49462891 98.2109375 C-40.34575323 99.1982392 -54.02311899 95.95840985 -67.06640625 84.7109375 C-77.84972348 74.45873888 -84.24995516 62.45524494 -84.84399414 47.41430664 C-85.00546072 33.61109581 -81.65492281 22.19556771 -73.37109375 11.03515625 C-72.89800781 10.37902344 -72.42492187 9.72289062 -71.9375 9.046875 C-55.05107382 -12.52756751 -21.72102938 -14.8917101 0 0 Z M-63.46875 15.2734375 C-71.90790547 25.64768594 -75.55519302 36.6400332 -74.37109375 50.03515625 C-72.31062533 61.68968078 -66.73480055 72.58475447 -57.0859375 79.7265625 C-45.36788116 87.13623679 -33.96712055 90.08022777 -20.1328125 87.41015625 C-8.61770605 84.06465191 1.42864513 76.55401991 7.28515625 66.0703125 C13.10093937 54.75422506 14.82304247 43.1395106 11.12890625 30.72265625 C6.21881655 17.97030315 -3.12064847 8.71062478 -15.37109375 3.03515625 C-32.53760602 -3.07495829 -51.17861029 2.1593778 -63.46875 15.2734375 Z " fill="#EC7954" transform="translate(198.37109375,240.96484375)"/>
<path d="M0 0 C7.65022301 5.58443579 12.01103499 11.03310496 15 20 C15.8104205 30.2166125 15.04768219 38.99371866 8.6875 47.3125 C2.359864 53.640136 -3.58591832 57.19711632 -12.81079102 57.32958984 C-13.83257446 57.32113037 -13.83257446 57.32113037 -14.875 57.3125 C-15.58390381 57.30686035 -16.29280762 57.3012207 -17.02319336 57.29541016 C-24.88443093 57.1126538 -30.5214405 55.25935061 -36.33203125 49.84765625 C-42.62435498 42.87747094 -45.6156539 35.37308558 -46 26 C-45.43243599 16.42062702 -40.89425582 9.02575762 -33.99609375 2.54296875 C-24.72551638 -4.62313313 -10.28676778 -5.78401889 0 0 Z " fill="#EC683E" transform="translate(183,258)"/>
<path d="M0 0 C3.125 2 3.125 2 5 5 C5.74297224 9.68072512 5.74495371 12.55743109 2.9375 16.4375 C-0.58639206 19.5115335 -2.34975862 20.08158318 -7 20 C-10.20929055 18.84949961 -12.25778834 17.94463303 -14.375 15.25 C-15.60045514 10.83836151 -15.60895985 7.27327969 -13.625 3.125 C-10.25397855 -1.28325882 -5.12810774 -0.6923348 0 0 Z " fill="#EC7751" transform="translate(25,149)"/>
<path d="M0 0 C3.02848464 2.06194699 4.6491022 3.53260921 5.515625 7.15625 C5.69781798 9.64069968 5.61694978 11.58470723 5 14 C2.17825343 17.22485323 0.04713582 18.65095473 -4 20 C-7.83399796 20 -9.84042082 19.15425853 -13 17 C-15.38710784 13.36744459 -15.20498757 10.0195644 -14.546875 5.8671875 C-13.72703568 3.06802183 -12.31608123 1.7030009 -10 0 C-6.1544104 -1.2818632 -3.93271581 -0.94927623 0 0 Z " fill="#ED7751" transform="translate(74,284)"/>
<path d="M0 0 C3.125 1.9375 3.125 1.9375 5 5 C6.02533012 9.72506298 5.65598921 12.92855095 3.125 17.0625 C-1.24516722 19.77200368 -4.98169482 19.93245535 -10 19 C-13.09799981 16.80873184 -13.80352112 15.58943664 -15 12 C-15.47043558 7.76607981 -15.44127101 5.69132457 -13.125 2.0625 C-8.7407162 -0.83112731 -5.11032774 -1.01368796 0 0 Z " fill="#EC724B" transform="translate(25,284)"/>
<path d="M0 0 C3.70219508 2.54525912 4.7681855 4.18864925 6 8.5 C6 13.32773113 4.52272814 15.42288871 1.25 18.8125 C-2.03392206 20.54568109 -4.34119985 20.44932633 -8 20 C-10.75329021 18.20437595 -12.52627461 16.94745078 -14 14 C-14.6469176 9.2959849 -14.63833677 6.00898393 -12.0625 1.9375 C-7.95188101 -0.66309569 -4.7405336 -1.05631455 0 0 Z " fill="#EC744D" transform="translate(223,194)"/>
<path d="M0 0 C3.13529459 2.23949613 4.5166576 3.85206181 6 7.375 C6 11.13887306 4.74270569 13.70130708 3 17 C-1.24738566 19.83159044 -5.0156387 19.63734456 -10 19 C-12.5625 17.5 -12.5625 17.5 -14 15 C-15.14720336 10.2582261 -15.42976363 8.12557141 -13.6875 3.5625 C-10.47576048 -1.31458594 -5.38890253 -0.75410743 0 0 Z " fill="#EC7049" transform="translate(124,149)"/>
<path d="M0 0 C2.57637471 1.88515223 3.59667428 3.19334857 5 6 C5.50312928 10.36045376 5.24536764 12.55015933 3.125 16.4375 C0.64536771 19.07299489 -1.42977478 19.495667 -5 19.6875 C-8.62808727 19.4438225 -9.97000812 19.0191948 -13.125 17 C-15.52976914 13.15236938 -15.83972226 10.42194167 -15 6 C-11.76404521 -0.91317614 -7.08598596 -0.8585605 0 0 Z " fill="#EC734D" transform="translate(25,194)"/>
<path d="M0 0 C4.56944444 2.13888889 4.56944444 2.13888889 6 5 C6.56096526 9.01196671 7.10678522 13.20937963 4.90625 16.76953125 C2.28558345 19.18807193 -0.03110039 20.00555364 -3.5 20.625 C-6.96756466 20.00579202 -9.29125349 19.20345774 -11.890625 16.7578125 C-14.20589077 13.08925758 -13.88330421 9.11309593 -13 5 C-9.62325864 -0.27615838 -5.87223418 -1.11513134 0 0 Z " fill="#EC734C" transform="translate(73,103)"/>
<path d="M0 0 C3.67203986 2.3120251 5.57659494 3.82940955 7.0625 7.9375 C6.96813857 12.56120994 5.37903583 15.52246161 2.25 18.875 C-0.96525348 20.48262674 -3.45417275 20.31659172 -7 20 C-10.38031589 18.81232145 -10.93216817 18.10174775 -13 15 C-13.66807132 10.3468056 -13.95453084 6.30452548 -11.125 2.4375 C-7.2350472 -0.19393866 -4.73569634 -0.47356963 0 0 Z " fill="#EC744E" transform="translate(321,284)"/>
<path d="M0 0 C2.8100346 1.79363911 4.50940468 3.01880935 6 6 C6.50698467 11.15434412 6.50698467 11.15434412 6 14 C3.5625 16.9375 3.5625 16.9375 1 19 C0.67 19.33 0.34 19.66 0 20 C-4.40011913 20.51766107 -6.52443744 20.28181485 -10.375 18 C-13.21412052 14.75529083 -13.94661953 13.11781552 -14.17578125 8.9296875 C-13.90838929 5.99431804 -12.85267389 4.24967544 -11 2 C-7.31502204 -0.45665197 -4.28028214 -0.70086491 0 0 Z " fill="#EC7048" transform="translate(273,284)"/>
<path d="M0 0 C3.91771408 3.16751351 5.80848291 5.30826567 6.375 10.3125 C6 14 6 14 3.9375 16.875 C0.40316129 19.43175566 -1.64826225 20 -6 20 C-10.01519063 18.48483372 -11.60368353 17.5944747 -14 14 C-14.46229036 9.00726409 -14.08578614 6.00009315 -11 2 C-7.33091443 -0.44605705 -4.26381231 -0.83946402 0 0 Z " fill="#ED724B" transform="translate(223,103)"/>
<path d="M0 0 C3.75619997 0.90970468 5.42266944 2.59273583 8 5.484375 C9.35709188 9.23633492 9.20280224 10.90976866 7.875 14.671875 C5.75273692 17.85526962 4.57874812 19.13240349 1 20.484375 C-2.9853829 20.67491123 -6.03958758 20.03661214 -9.5 18.046875 C-11.88366876 13.9747742 -11.83727309 10.07085328 -11 5.484375 C-8.13348421 1.00544407 -5.39635278 -0.36793314 0 0 Z " fill="#EC744D" transform="translate(121,102.515625)"/>
<path d="M0 0 C2.59954609 0.59661714 3.69521393 1.18284166 5.5078125 3.109375 C7.69825623 7.12518851 8.18631059 9.0472857 7.3828125 13.546875 C5.02170139 17.8755787 5.02170139 17.8755787 2.3828125 19.546875 C-1.13562663 20.40629702 -4.0980007 20.40071049 -7.6171875 19.546875 C-10.44316285 17.81361012 -10.95923405 16.64172145 -12.6171875 13.546875 C-13.34098905 10.45262337 -13.13922075 8.83568446 -12.6171875 5.546875 C-9.37636119 0.3615529 -5.78251789 -0.31070245 0 0 Z " fill="#EC714A" transform="translate(221.6171875,148.453125)"/>
<path d="M0 0 C2.79348323 1.2415481 4.45140815 2.32672818 6.375 4.6875 C7.3485867 8.28977078 7.17711224 11.50328422 6 15 C2.91674708 18.52371762 1.05576343 19.81477835 -3.5625 20.625 C-7.85907207 19.84380508 -9.29002083 18.34762132 -12 15 C-13.43304064 12.13391871 -13.30644155 10.18699217 -13 7 C-9.35757184 0.56504359 -7.35337301 -0.49853376 0 0 Z " fill="#EC754F" transform="translate(321,103)"/>
<path d="M0 0 C2.85746217 1.26998319 4.48137263 2.2838003 6.3125 4.8125 C7.58476509 8.86061621 7.50914951 11.87987109 5.75 15.75 C3.8687082 18.16880375 2.90207573 19.08791905 0 20 C-4.63199447 20.49276537 -7.30966775 19.87025842 -11 17 C-13.33067577 13.78144775 -13.46741137 10.89509474 -13 7 C-9.35757184 0.56504359 -7.35337301 -0.49853376 0 0 Z " fill="#EC744D" transform="translate(23,103)"/>
<path d="M0 0 C2.4375 1.375 2.4375 1.375 4 4 C4.81915167 9.0849226 5.14382408 13.41340531 2.0625 17.6875 C-2.08701961 19.46586555 -5.55915481 19.92517608 -10 19 C-13.37882179 16.6066679 -14.67073608 14.96721278 -16 11.0625 C-16 7.15544281 -15.21495196 5.21525285 -13 2 C-8.47136416 -1.1906298 -5.30857332 -1.4746037 0 0 Z " fill="#EC734C" transform="translate(175,58)"/>
<path d="M0 0 C3.125 1.9375 3.125 1.9375 5 5 C6.02533012 9.72506298 5.65598921 12.92855095 3.125 17.0625 C-1.28225352 19.79499718 -4.94663642 19.86921262 -10 19 C-12.625 17.6875 -12.625 17.6875 -14 15 C-14.69339235 10.13887706 -14.89235968 5.74415755 -12.625 1.3125 C-8.4508717 -0.77456415 -4.55873476 -0.82484377 0 0 Z " fill="#EB7049" transform="translate(74,149)"/>
<path d="M0 0 C3.75121095 0.83520244 5.45461563 2.62082432 8.03515625 5.453125 C9.59689792 8.94407696 9.05607439 10.38572211 7.91015625 14.078125 C5.86818076 17.75368087 4.97110938 19.053675 1.03515625 20.453125 C-3.08027723 20.64168072 -6.03423097 20.12125726 -9.40234375 17.703125 C-11.20678231 15.10473347 -11.81429509 13.61464679 -11.96484375 10.453125 C-10.3951602 3.46089828 -7.6329404 -0.39948099 0 0 Z " fill="#EC724B" transform="translate(170.96484375,193.546875)"/>
<path d="M0 0 C3.0625 1.9375 3.0625 1.9375 5 5 C5.69113243 8.15864655 5.70352709 10.84270771 5 14 C2.47631975 17.67080764 0.82964117 18.75864984 -3.4375 20 C-7.50119967 20 -9.60540372 19.18224047 -13 17 C-14.86654947 13.26690106 -14.5424959 9.06552807 -14 5 C-10.56077301 -0.54714031 -6.0893026 -1.33237905 0 0 Z " fill="#EC6E46" transform="translate(124,194)"/>
<path d="M0 0 C3.70928971 0.90558831 5.43137067 2.66905393 8 5.48828125 C9.56174167 8.97923321 9.02091814 10.42087836 7.875 14.11328125 C5.83302451 17.78883712 4.93595313 19.08883125 1 20.48828125 C-3.29849998 20.76228922 -6.11150197 20.19907967 -9.5 17.48828125 C-11.55303608 13.38220909 -11.91987551 9.98997292 -11 5.48828125 C-8.09868902 1.04564881 -5.38806792 -0.35716359 0 0 Z " fill="#EC734C" transform="translate(271,102.51171875)"/>
<path d="M0 0 C2.57637471 1.88515223 3.59667428 3.19334857 5 6 C5.39447548 10.18144011 5.45035186 12.30946048 3.125 15.875 C0.19961143 18.80038857 -0.57340563 18.96503325 -4.8125 19.3125 C-8.13227327 19.28232024 -8.99044521 19.0060988 -11.9375 17.125 C-14.64326506 14.33724206 -14.96879003 13.56177951 -15.1875 9.625 C-15.01513501 6.29261022 -14.88103846 4.67305465 -13 2 C-8.77845244 -0.81436504 -4.96024032 -0.68304949 0 0 Z " fill="#EC734C" transform="translate(224,58)"/>
<path d="M0 0 C2.7810037 1.71894268 3.35450122 2.98325224 5 6 C5.68359886 10.32945942 5.5279283 12.19050994 3.125 15.875 C0.19961143 18.80038857 -0.57340563 18.96503325 -4.8125 19.3125 C-8.13227327 19.28232024 -8.99044521 19.0060988 -11.9375 17.125 C-14.60446101 14.37722199 -14.95824498 13.553254 -15.25 9.6875 C-14.98667452 5.80344923 -14.33593632 4.05468596 -12 1 C-8.25353331 -0.87323335 -4.06975747 -0.6644502 0 0 Z " fill="#EC734C" transform="translate(224,13)"/>
<path d="M0 0 C3.0576086 2.81621845 3.90935897 4.36551276 4.5 8.5 C3.9231981 12.53761333 2.85349783 14.14650217 0 17 C-3.20173254 18.60086627 -6.52577059 18.49917089 -10 18 C-12.8100346 16.20636089 -14.50940468 14.98119065 -16 12 C-16.37747367 7.99877908 -16.40677401 5.70403193 -14.375 2.1875 C-9.69592081 -2.12217821 -5.71477023 -2.85738511 0 0 Z " fill="#EC744D" transform="translate(324,59)"/>
<path d="M0 0 C3.11199254 1.99167522 4.61304528 3.27090501 5.43359375 6.9375 C5.67357753 10.77724044 5.23135114 12.63754988 3.125 15.9375 C-0.10428296 19.07180405 -2.4493388 19.38788997 -6.9609375 19.36328125 C-10.349039 18.75965397 -11.91986899 16.5844052 -14 14 C-14.33 13.67 -14.66 13.34 -15 13 C-15.0424856 8.81092006 -14.62232703 5.10936558 -12.5625 1.4375 C-8.47183646 -0.85726247 -4.56455536 -0.83327101 0 0 Z " fill="#ED744D" transform="translate(25,58)"/>
<path d="M0 0 C2.57637471 1.88515223 3.59667428 3.19334857 5 6 C5.12243863 10.53022942 4.81830145 13.98332245 1.9375 17.5625 C-1.88844599 19.43477144 -4.82161996 19.80191132 -9 19 C-11.9375 17.5625 -11.9375 17.5625 -14 15 C-15.04809624 11.91426414 -15.35261731 9.24072096 -15 6 C-11.62213737 -0.63924724 -7.13666352 -1.44662098 0 0 Z " fill="#EC734C" transform="translate(25,239)"/>
<path d="M0 0 C2.57637471 1.88515223 3.59667428 3.19334857 5 6 C5.12243863 10.53022942 4.81830145 13.98332245 1.9375 17.5625 C-1.88380097 19.43249834 -4.82601256 19.80950059 -9 19 C-11.98936029 17.47351815 -13.52318042 16.39195779 -14.62890625 13.1640625 C-15.51182687 8.31264603 -14.76381956 5.19691118 -12 1 C-8.31123973 -0.84438013 -4.02669687 -0.48788734 0 0 Z " fill="#EC734C" transform="translate(323,13)"/>
<path d="M0 0 C3.37882179 2.3933321 4.67073608 4.03278722 6 7.9375 C6 11.74724203 5.033189 13.80498871 3 17 C-1.03485494 19.68990329 -4.26228652 19.77993882 -9 19 C-12.0625 17.0625 -12.0625 17.0625 -14 14 C-15.03945854 9.24941677 -14.669717 6.05858493 -12.0625 1.9375 C-7.95653383 -0.66015206 -4.73592006 -1.0638661 0 0 Z " fill="#EC7047" transform="translate(174,149)"/>
<path d="M0 0 C4.35212994 2.37388906 4.35212994 2.37388906 6 5 C6.96512026 9.5603774 6.85873145 13.46921785 4.5625 17.5625 C0.81439731 19.66509419 -2.70274164 20.48257982 -7 20 C-10 17.625 -10 17.625 -12 15 C-12.33 14.67 -12.66 14.34 -13 14 C-13.58968059 6.92383292 -13.58968059 6.92383292 -11.125 3.0625 C-7.52217335 -0.43436116 -4.97275774 -0.49727577 0 0 Z " fill="#EC724B" transform="translate(173,103)"/>
<path d="M0 0 C2.57637471 1.88515223 3.59667428 3.19334857 5 6 C5.375 9.3125 5.375 9.3125 5 13 C2.5625 15.875 2.5625 15.875 0 18 C-0.33 18.33 -0.66 18.66 -1 19 C-8.00265252 19.70026525 -8.00265252 19.70026525 -11.9375 16.9375 C-14.42007096 13.40171712 -15 11.31286678 -15 7 C-11.98556442 -0.75140577 -7.7667527 -0.94104435 0 0 Z " fill="#ED744E" transform="translate(25,13)"/>
<path d="M0 0 C2.81688642 1.64890912 3.63560511 2.7708088 4.5546875 5.87109375 C5.21824056 9.45292608 5.22349146 11.48596965 3.75 14.875 C2 17 2 17 -1 19 C-7.94677871 19.67226891 -7.94677871 19.67226891 -11.9375 17.125 C-14.55197555 14.43129792 -14.94056139 13.51513465 -15.375 9.75 C-15.00173773 6.01737726 -14.35410907 3.87613233 -11.76171875 1.10546875 C-8.11625719 -1.18203817 -4.09182328 -0.78795246 0 0 Z " fill="#EC724A" transform="translate(323,149)"/>
<path d="M0 0 C3.0625 1.9375 3.0625 1.9375 5 5 C6.03288287 9.72053082 5.65315576 12.93317893 3.125 17.0625 C-1.27770373 19.79217631 -4.95087924 19.87699737 -10 19 C-12.625 17.625 -12.625 17.625 -14 15 C-14.87699737 9.95087924 -14.79217631 6.27770373 -12.0625 1.875 C-7.93317893 -0.65315576 -4.72053082 -1.03288287 0 0 Z " fill="#EC6C42" transform="translate(274,194)"/>
<path d="M0 0 C3.0625 1.9375 3.0625 1.9375 5 5 C5.69076373 8.15696149 5.71427539 10.84575986 5 14 C2.72104883 17.12541875 1.11058206 18.58353173 -2.5 19.9375 C-6.602739 20.04006847 -9.05178531 18.73750031 -12.25 16.25 C-14.48366844 13.37814057 -14.9273221 11.63389515 -15 8 C-12.06701763 0.37424585 -7.72257027 -1.2713163 0 0 Z " fill="#EC7048" transform="translate(274,149)"/>
<path d="M0 0 C2.96460633 2.06233484 4.67606665 3.55797411 5.484375 7.15625 C5.73378301 11.3130502 5.3193814 13.49517134 3.0625 17.0625 C-1.05858493 19.669717 -4.24941677 20.03945854 -9 19 C-12.0625 17.0625 -12.0625 17.0625 -14 14 C-14.69040288 10.84468766 -14.72499604 8.1511639 -14 5 C-9.90624191 -0.3108213 -6.48394364 -1.81550422 0 0 Z " fill="#EC7048" transform="translate(124,58)"/>
<path d="M0 0 C2.96460633 2.06233484 4.67606665 3.55797411 5.484375 7.15625 C5.73378301 11.3130502 5.3193814 13.49517134 3.0625 17.0625 C-1.05858493 19.669717 -4.24941677 20.03945854 -9 19 C-12.0625 17.0625 -12.0625 17.0625 -14 14 C-14.69040288 10.84468766 -14.72499604 8.1511639 -14 5 C-9.90624191 -0.3108213 -6.48394364 -1.81550422 0 0 Z " fill="#EC7048" transform="translate(74,58)"/>
<path d="M0 0 C2.96460633 2.06233484 4.67606665 3.55797411 5.484375 7.15625 C5.73378301 11.3130502 5.3193814 13.49517134 3.0625 17.0625 C-1.05858493 19.669717 -4.24941677 20.03945854 -9 19 C-12.0625 17.0625 -12.0625 17.0625 -14 14 C-14.69040288 10.84468766 -14.72499604 8.1511639 -14 5 C-9.90624191 -0.3108213 -6.48394364 -1.81550422 0 0 Z " fill="#EC7047" transform="translate(274,13)"/>
<path d="M0 0 C2.8940076 2.31520608 4.63102627 4.01607006 5.9375 7.5 C6.0393746 11.57498384 4.68234098 14.0289763 2.375 17.3125 C-0.41472196 19.29467087 -2.55118755 19.64182959 -5.9609375 19.4375 C-9.92928483 18.58605383 -11.40136322 17.18333005 -14 14 C-14.79715352 10.82859068 -14.78191279 8.17364605 -14 5 C-9.90624191 -0.3108213 -6.48394364 -1.81550422 0 0 Z " fill="#ED754F" transform="translate(174,13)"/>
<path d="M0 0 C2.96460633 2.06233484 4.67606665 3.55797411 5.484375 7.15625 C5.73378301 11.3130502 5.3193814 13.49517134 3.0625 17.0625 C-1.05858493 19.669717 -4.24941677 20.03945854 -9 19 C-12.0625 17.0625 -12.0625 17.0625 -14 14 C-14.69040288 10.84468766 -14.72499604 8.1511639 -14 5 C-9.90624191 -0.3108213 -6.48394364 -1.81550422 0 0 Z " fill="#EC7149" transform="translate(124,13)"/>
<path d="M0 0 C2.8940076 2.31520608 4.63102627 4.01607006 5.9375 7.5 C6.0393746 11.57498384 4.68234098 14.0289763 2.375 17.3125 C-0.41472196 19.29467087 -2.55118755 19.64182959 -5.9609375 19.4375 C-9.92928483 18.58605383 -11.40136322 17.18333005 -14 14 C-14.79715352 10.82859068 -14.78191279 8.17364605 -14 5 C-9.90624191 -0.3108213 -6.48394364 -1.81550422 0 0 Z " fill="#EC7149" transform="translate(74,13)"/>
<path d="M0 0 C3.0625 1.9375 3.0625 1.9375 5 5 C6.03945854 9.75058323 5.669717 12.94141507 3.0625 17.0625 C-1.05858493 19.669717 -4.24941677 20.03945854 -9 19 C-12.0625 17.0625 -12.0625 17.0625 -14 14 C-15.03945854 9.24941677 -14.669717 6.05858493 -12.0625 1.9375 C-7.94141507 -0.669717 -4.75058323 -1.03945854 0 0 Z " fill="#EC6B42" transform="translate(74,194)"/>
<path d="M0 0 C3.07864729 0.62305957 4.82094078 2.18554315 6.96875 4.3984375 C8.74375756 7.94845262 8.3894109 11.88405825 7.34375 15.6484375 C5.24547193 18.31897322 3.13540125 19.24139185 -0.03125 20.3984375 C-4.09718099 20.3984375 -5.65407124 19.70018051 -8.84375 17.1484375 C-11.10361096 14.30746944 -11.94145894 12.99007998 -12.03125 9.3984375 C-10.26225652 2.80491635 -7.04169158 -0.34157459 0 0 Z " fill="#EC724A" transform="translate(271.03125,238.6015625)"/>
<path d="M0 0 C3 1.875 3 1.875 5 5 C5.83520736 9.57516242 5.80074202 13.47131069 3.625 17.625 C-0.52868931 19.80074202 -4.42483758 19.83520736 -9 19 C-12.11199254 17.00832478 -13.61304528 15.72909499 -14.43359375 12.0625 C-14.67357753 8.22275956 -14.23135114 6.36245012 -12.125 3.0625 C-8.49711821 -0.45867939 -4.90230758 -0.78736871 0 0 Z " fill="#EC7049" transform="translate(322,194)"/>
<path d="M0 0 C3 1.875 3 1.875 5 5 C5.83520736 9.57516242 5.80074202 13.47131069 3.625 17.625 C-0.53206937 19.80251253 -4.42126359 19.82846281 -9 19 C-12.125 17.0625 -12.125 17.0625 -14 14 C-14.7432745 10.81371475 -14.79908896 8.17910932 -14 5 C-9.81316068 -0.12887817 -6.48223319 -1.0289259 0 0 Z " fill="#EC7048" transform="translate(322,239)"/>
<path d="M0 0 C3.0625 2 3.0625 2 5 5 C5.73301898 9.61801955 5.71565523 12.58960049 3.0625 16.5 C-0.5145404 19.42003298 -2.33554105 19.85371888 -6.83984375 19.5078125 C-10.57700553 18.62927537 -11.96994762 17.20879247 -14 14 C-15.03945854 9.24941677 -14.669717 6.05858493 -12.0625 1.9375 C-7.94608077 -0.66676523 -4.7460093 -1.04704003 0 0 Z " fill="#EC6E46" transform="translate(74,239)"/>
<path d="M0 0 C3.0625 1.9375 3.0625 1.9375 5 5 C6.03945854 9.75058323 5.669717 12.94141507 3.0625 17.0625 C-1.05858493 19.669717 -4.24941677 20.03945854 -9 19 C-12.0625 17.0625 -12.0625 17.0625 -14 14 C-15.03945854 9.24941677 -14.669717 6.05858493 -12.0625 1.9375 C-7.94141507 -0.669717 -4.75058323 -1.03945854 0 0 Z " fill="#EC6E46" transform="translate(274,58)"/>
<path d="M0 0 C0 3 0 3 -2.1875 5.48046875 C-3.115625 6.37378906 -4.04375 7.26710937 -5 8.1875 C-5.928125 9.08855469 -6.85625 9.98960937 -7.8125 10.91796875 C-8.534375 11.60503906 -9.25625 12.29210937 -10 13 C-10 8.41771462 -7.08388033 6.1816619 -4 3 C-1.625 1.0625 -1.625 1.0625 0 0 Z " fill="#F1A68F" transform="translate(135,242)"/>
<path d="M0 0 C-0.98378287 2.19459255 -1.77896406 3.79664694 -3.5625 5.4375 C-5.45263121 7.49199044 -5.6324247 9.27994277 -6 12 C-6.33 12 -6.66 12 -7 12 C-7.44117322 7.50003317 -7.52867608 5.65388883 -4.625 2.0625 C-2 0 -2 0 0 0 Z " fill="#F0AE99" transform="translate(17,284)"/>
<path d="M0 0 C0.90492187 0.02320313 1.80984375 0.04640625 2.7421875 0.0703125 C4.10730469 0.09738281 4.10730469 0.09738281 5.5 0.125 C6.19867188 0.14820313 6.89734375 0.17140625 7.6171875 0.1953125 C7.6171875 0.5253125 7.6171875 0.8553125 7.6171875 1.1953125 C6.3796875 1.2778125 5.1421875 1.3603125 3.8671875 1.4453125 C-0.13091586 1.91858622 -1.76242429 3.07100348 -4.3828125 6.1953125 C-5.0428125 6.1953125 -5.7028125 6.1953125 -6.3828125 6.1953125 C-3.63053977 0.29758523 -3.63053977 0.29758523 0 0 Z " fill="#EA8568" transform="translate(17.3828125,238.8046875)"/>
<path d="M0 0 C1.21236328 0.02707031 1.21236328 0.02707031 2.44921875 0.0546875 C3.37154297 0.08949219 3.37154297 0.08949219 4.3125 0.125 C4.3125 0.455 4.3125 0.785 4.3125 1.125 C2.518125 1.2178125 2.518125 1.2178125 0.6875 1.3125 C-4.09480383 1.87412287 -6.29257231 3.81494551 -9.6875 7.125 C-7.82206758 1.67219755 -5.82891046 -0.16895393 0 0 Z " fill="#EEA087" transform="translate(69.6875,193.875)"/>
<path d="M0 0 C1.21236328 0.02707031 1.21236328 0.02707031 2.44921875 0.0546875 C3.37154297 0.08949219 3.37154297 0.08949219 4.3125 0.125 C4.3125 0.455 4.3125 0.785 4.3125 1.125 C2.518125 1.2178125 2.518125 1.2178125 0.6875 1.3125 C-4.09480383 1.87412287 -6.29257231 3.81494551 -9.6875 7.125 C-7.82206758 1.67219755 -5.82891046 -0.16895393 0 0 Z " fill="#F0A68F" transform="translate(119.6875,193.875)"/>
<path d="M0 0 C1.21236328 0.02707031 1.21236328 0.02707031 2.44921875 0.0546875 C3.37154297 0.08949219 3.37154297 0.08949219 4.3125 0.125 C4.3125 0.455 4.3125 0.785 4.3125 1.125 C2.518125 1.2178125 2.518125 1.2178125 0.6875 1.3125 C-4.09480383 1.87412287 -6.29257231 3.81494551 -9.6875 7.125 C-7.82206758 1.67219755 -5.82891046 -0.16895393 0 0 Z " fill="#F09E83" transform="translate(269.6875,193.875)"/>
<path d="M0 0 C1.8871875 0.061875 1.8871875 0.061875 3.8125 0.125 C3.8125 0.455 3.8125 0.785 3.8125 1.125 C2.265625 1.2178125 2.265625 1.2178125 0.6875 1.3125 C-4.07212827 2.31048657 -5.72342963 3.82990867 -9.1875 7.125 C-7.4328046 1.99589037 -5.59164481 -0.18333262 0 0 Z " fill="#EEA48C" transform="translate(269.1875,283.875)"/>
<path d="M0 0 C1.8871875 0.061875 1.8871875 0.061875 3.8125 0.125 C3.8125 0.455 3.8125 0.785 3.8125 1.125 C2.265625 1.2178125 2.265625 1.2178125 0.6875 1.3125 C-4.07212827 2.31048657 -5.72342963 3.82990867 -9.1875 7.125 C-7.4328046 1.99589037 -5.59164481 -0.18333262 0 0 Z " fill="#F0A78F" transform="translate(219.1875,102.875)"/>
<path d="M0 0 C-1.875 3.875 -1.875 3.875 -3 5 C-3.07179964 6.51928038 -3.08392007 8.04167482 -3.0625 9.5625 C-3.05347656 10.38878906 -3.04445313 11.21507812 -3.03515625 12.06640625 C-3.02355469 12.70449219 -3.01195312 13.34257812 -3 14 C-3.66 13.67 -4.32 13.34 -5 13 C-5.46882399 4.87371744 -5.46882399 4.87371744 -3.625 1.4375 C-2 0 -2 0 0 0 Z " fill="#F1A992" transform="translate(265,14)"/>
<path d="M0 0 C-5.75 5 -5.75 5 -8 5 C-6.19780722 -0.02039417 -5.34443412 -1.60333024 0 0 Z " fill="#EFA68D" transform="translate(19,195)"/>
<path d="M0 0 C-5.75 5 -5.75 5 -8 5 C-6.19780722 -0.02039417 -5.34443412 -1.60333024 0 0 Z " fill="#ED9D83" transform="translate(118,150)"/>
<path d="M0 0 C-1.875 3.875 -1.875 3.875 -3 5 C-3.23075082 6.34747084 -3.41153063 7.70377565 -3.5625 9.0625 C-3.706875 10.361875 -3.85125 11.66125 -4 13 C-4.33 13 -4.66 13 -5 13 C-5.46882399 4.87371744 -5.46882399 4.87371744 -3.625 1.4375 C-2 0 -2 0 0 0 Z " fill="#F1A992" transform="translate(115,14)"/>
<path d="M0 0 C-1.875 3.875 -1.875 3.875 -3 5 C-3.23075082 6.34747084 -3.41153063 7.70377565 -3.5625 9.0625 C-3.706875 10.361875 -3.85125 11.66125 -4 13 C-4.33 13 -4.66 13 -5 13 C-5.46882399 4.87371744 -5.46882399 4.87371744 -3.625 1.4375 C-2 0 -2 0 0 0 Z " fill="#F0AB94" transform="translate(65,14)"/>
<path d="M0 0 C-5.75 5 -5.75 5 -8 5 C-6.19780722 -0.02039417 -5.34443412 -1.60333024 0 0 Z " fill="#EF9D83" transform="translate(317,14)"/>
<path d="M0 0 C-5.75 5 -5.75 5 -8 5 C-6.19780722 -0.02039417 -5.34443412 -1.60333024 0 0 Z " fill="#F09F84" transform="translate(218,14)"/>
<path d="M0 0 C0.8971875 0.309375 0.8971875 0.309375 1.8125 0.625 C0.69875 1.2746875 0.69875 1.2746875 -0.4375 1.9375 C-2.80583926 3.39079909 -4.99674065 4.92107606 -7.1875 6.625 C-4.6484375 -0.796875 -4.6484375 -0.796875 0 0 Z " fill="#F0987B" transform="translate(67.1875,239.375)"/>
</svg>
