<?xml version="1.0" encoding="UTF-8"?>
<svg version="1.1" xmlns="http://www.w3.org/2000/svg" width="48" height="48" viewBox="0 0 125 125">
<path d="M0 0 C11.38075102 8.81035851 20.65372635 20.41529792 22.62890625 35.03515625 C23.96223145 51.14246538 21.76182996 64.94598609 11.62890625 78.03515625 C2.53200866 88.77170263 -9.16796112 97.02500961 -23.49462891 98.2109375 C-40.34575323 99.1982392 -54.02311899 95.95840985 -67.06640625 84.7109375 C-77.84972348 74.45873888 -84.24995516 62.45524494 -84.84399414 47.41430664 C-85.00546072 33.61109581 -81.65492281 22.19556771 -73.37109375 11.03515625 C-72.89800781 10.37902344 -72.42492187 9.72289063 -71.9375 9.046875 C-55.05107382 -12.52756751 -21.72102938 -14.8917101 0 0 Z M-63.46875 15.2734375 C-71.90790547 25.64768594 -75.55519302 36.6400332 -74.37109375 50.03515625 C-72.31062533 61.68968078 -66.73480055 72.58475447 -57.0859375 79.7265625 C-45.36788116 87.13623679 -33.96712055 90.08022777 -20.1328125 87.41015625 C-8.61770605 84.06465191 1.42864513 76.55401991 7.28515625 66.0703125 C13.10093937 54.75422506 14.82304247 43.1395106 11.12890625 30.72265625 C6.21881655 17.97030315 -3.12064847 8.71062478 -15.37109375 3.03515625 C-32.53760602 -3.07495829 -51.17861029 2.1593778 -63.46875 15.2734375 Z " fill="#EC7954" transform="translate(92.37109375,17.96484375)"/>
<path d="M0 0 C7.65022301 5.58443579 12.01103499 11.03310496 15 20 C15.8104205 30.2166125 15.04768219 38.99371866 8.6875 47.3125 C2.359864 53.640136 -3.58591832 57.19711632 -12.81079102 57.32958984 C-13.83257446 57.32113037 -13.83257446 57.32113037 -14.875 57.3125 C-15.58390381 57.30686035 -16.29280762 57.3012207 -17.02319336 57.29541016 C-24.88443093 57.1126538 -30.5214405 55.25935061 -36.33203125 49.84765625 C-42.62435498 42.87747094 -45.6156539 35.37308558 -46 26 C-45.43243599 16.42062702 -40.89425582 9.02575762 -33.99609375 2.54296875 C-24.72551638 -4.62313313 -10.28676778 -5.78401889 0 0 Z " fill="#EC683E" transform="translate(77,35)"/>
<path d="M0 0 C0 3 0 3 -2.1875 5.48046875 C-3.115625 6.37378906 -4.04375 7.26710938 -5 8.1875 C-5.928125 9.08855469 -6.85625 9.98960938 -7.8125 10.91796875 C-8.534375 11.60503906 -9.25625 12.29210938 -10 13 C-10 8.41771462 -7.08388033 6.1816619 -4 3 C-1.625 1.0625 -1.625 1.0625 0 0 Z " fill="#F1A68F" transform="translate(29,19)"/>
</svg>
