<?xml version="1.0" encoding="UTF-8"?>
<svg version="1.1" xmlns="http://www.w3.org/2000/svg" width="323" height="284">
<path d="M0 0 C7.6762652 6.31159583 13.10026649 12.55437523 14.15625 22.57421875 C14.5936925 32.69007647 12.36709415 39.68499876 5.5625 47.1875 C-1.7864397 53.87408891 -10.38593944 55.7728253 -20.1875 55.3125 C-30.95803777 53.34421784 -39.12625175 48.68763064 -45.93359375 40.13671875 C-50.89627996 32.91686062 -51.30048521 24.87321126 -50.1875 16.3125 C-47.54317242 7.7885501 -43.01912154 1.64650415 -35.1875 -2.6875 C-22.9392753 -8.1972192 -11.5340407 -6.10625684 0 0 Z " fill="#111111" transform="translate(156.1875,113.6875)"/>
<path d="M0 0 C5.50101249 5.18579735 10.24541147 11.61031556 10.94140625 19.38671875 C11.05576198 25.59051696 10.70358266 29.99864054 6.2265625 34.70703125 C-1.18640577 41.52029871 -8.4895507 42.69032113 -18.32421875 42.3984375 C-28.56514359 41.66694287 -38.22109676 37.47045195 -46.01171875 30.7421875 C-47.12546875 29.4428125 -47.12546875 29.4428125 -48.26171875 28.1171875 C-49.12410156 27.23933594 -49.12410156 27.23933594 -50.00390625 26.34375 C-55.44968968 20.62680723 -57.63384186 15.43384112 -58.76171875 7.6796875 C-57.94355734 1.85028744 -55.82388222 -3.43995154 -51.5 -7.5625 C-35.48334382 -18.54349349 -13.70782087 -11.41134656 0 0 Z " fill="#111111" transform="translate(203.26171875,67.8828125)"/>
<path d="M0 0 C8.77655523 6.26448218 16.26656881 15.48952399 18.3125 26.3125 C18.96078139 33.75179462 18.90425436 40.16044076 14.3125 46.3125 C8.67239145 51.67060312 4.17238011 52.78422277 -3.46484375 52.6171875 C-14.12557539 51.60926378 -22.43260218 46.14374145 -29.50390625 38.296875 C-37.12589608 28.59268744 -39.64471742 19.64693018 -38.6875 7.3125 C-37.23687616 1.66730121 -34.23778735 -1.57992098 -29.46875 -4.77734375 C-19.63550243 -9.80178823 -8.67774448 -5.3712246 0 0 Z " fill="#111111" transform="translate(238.6875,127.6875)"/>
<path d="M0 0 C5.99816668 5.06511853 10.0885248 11.09119981 11 19 C11.11059795 26.71727889 9.44441443 33.11918918 4.2734375 38.9453125 C-1.31349539 44.26514103 -6.88476239 46.55908168 -14.5 47.375 C-21.92895512 46.57904052 -28.46136995 44.10592458 -34 39 C-39.66377459 31.80547552 -40.8027905 24.94537989 -40 16 C-38.6002615 9.24832019 -34.8023726 3.71598043 -29.1953125 -0.2890625 C-19.9259754 -5.81883871 -9.16714251 -5.6854803 0 0 Z " fill="#101010" transform="translate(93,198)"/>
<path d="M0 0 C5.99297309 3.1442953 10.34749482 8.34626712 12.7421875 14.6015625 C15.09440943 22.83433927 14.83728725 31.67790681 10.8671875 39.3515625 C7.15026688 44.8357012 3.3881516 48.52111644 -3.1328125 50.3515625 C-8.97595648 50.9080524 -14.023118 50.4173792 -19.1328125 47.3515625 C-24.95669851 42.17995172 -28.64130937 36.36960059 -29.6015625 28.51953125 C-29.67527334 19.13061306 -29.04602486 11.58730522 -22.34765625 4.44921875 C-16.09071685 -1.19663952 -8.17053163 -2.48408105 0 0 Z " fill="#101010" transform="translate(201.1328125,231.6484375)"/>
<path d="M0 0 C5.24093494 3.60314277 8.95382649 7.44193097 10.16015625 13.91015625 C10.49727622 19.0015322 9.47780826 22.28871333 6.22265625 26.21484375 C0.04404277 32.4917906 -8.12479433 34.81754355 -16.75 35.0859375 C-26.07720397 34.77065173 -34.14956651 31.84247273 -41.25 25.7109375 C-45.0825576 21.49615717 -46.07241785 16.83002476 -45.82421875 11.20703125 C-44.57714183 5.78606422 -40.7056906 2.28276173 -36.14453125 -0.63671875 C-25.09456259 -6.42084869 -10.85465683 -6.21881381 0 0 Z " fill="#111111" transform="translate(117.25,54.2890625)"/>
<path d="M0 0 C7.1241755 3.97234649 11.30036754 9.55558257 14.25390625 17.01171875 C16.06966231 23.55165431 16.72156494 32.08925349 13.57421875 38.31640625 C9.59906695 43.00504684 6.37913221 44.90206258 0.26171875 45.69140625 C-6.47473041 45.3251527 -13.14604253 41.90864497 -17.86328125 37.19140625 C-24.70857918 28.2411792 -26.93872038 20.48351709 -25.86328125 9.19140625 C-24.85537859 5.14065821 -23.40968076 2.36881672 -20.0625 -0.1796875 C-13.01494369 -4.13452978 -7.08979007 -3.45461757 0 0 Z " fill="#101010" transform="translate(291.86328125,207.80859375)"/>
<path d="M0 0 C6.73706007 3.98099004 12.45998605 9.69301983 16.4375 16.4375 C17.2969371 20.35271347 17.71939 24.02896719 17 28 C14.47031526 31.28175318 12.92268669 32.69243777 9 34 C-1.63213266 34.8679292 -10.01133897 30.69171088 -18 24 C-23.13422602 19.01709854 -27.03903062 13.7766178 -27.5 6.4375 C-27.3827269 2.77734476 -27.05431912 2.07046805 -24.6875 -1 C-16.8910556 -6.80200513 -8.03538798 -3.78274113 0 0 Z " fill="#111111" transform="translate(253,78)"/>
<path d="M0 0 C4.50821168 3.75684307 4.50821168 3.75684307 5.625 6.1875 C6.12677235 12.22071516 4.39994015 16.79837496 0.546875 21.39453125 C-5.19150733 26.74802208 -12.02092171 28.94101098 -19.76171875 29.32421875 C-24.86138855 29.05741988 -28.64161172 27.43198389 -32.8125 24.4375 C-35.00967297 21.27357092 -35.30987782 19.02970843 -35.375 15.1875 C-33.62517987 8.65483819 -29.81926681 5.05764178 -24.375 1.1875 C-16.55168236 -3.21412019 -8.0386369 -4.31704574 0 0 Z " fill="#101010" transform="translate(39.375,110.8125)"/>
<path d="M0 0 C2.6875 2.3125 2.6875 2.3125 4 5 C4.08558699 9.70728464 3.03066381 13.15078768 -0.23828125 16.64453125 C-6.51707273 21.47544177 -14.33382671 22.67239955 -22.0625 22.390625 C-27.50208172 21.66727637 -33.06902069 20.26813443 -36.72265625 15.9765625 C-38.12535028 13.8060329 -38.84774768 12.5882894 -39 10 C-36.91897145 4.24656813 -33.4082059 0.66091906 -27.99609375 -1.9765625 C-18.44608053 -5.63256041 -8.91175336 -5.04999357 0 0 Z " fill="#111111" transform="translate(53,48)"/>
<path d="M0 0 C4.73049031 2.58026744 7.60746839 5.11923551 10 10 C10 13.90952115 9.62735162 16.10723038 7.375 19.3125 C2.21376521 22.97969314 -3.80721696 23.71412273 -10 23 C-18.07813513 21.35087512 -25.09270523 18.41607136 -30.5 12.0625 C-32.19538641 8.60108609 -32.64603335 6.79544594 -32 3 C-25.03721103 -8.34676721 -10.17827002 -4.78395187 0 0 Z " fill="#111111" transform="translate(155,25)"/>
<path d="M0 0 C8.74921301 6.49842602 8.74921301 6.49842602 11 11 C11.57895804 16.12791405 11.57895804 16.12791405 11 19 C7.90094821 22.17851466 5.15205628 23.25024137 0.8125 23.5 C-8.09271149 23.05024184 -16.65438087 19.2413484 -23 13 C-25.65716606 9.74827469 -27 7.04970012 -27 2.75 C-25.84527527 -0.42549301 -24.91661917 -1.37012458 -22 -3 C-14.34980168 -5.55006611 -7.09355863 -3.4031123 0 0 Z " fill="#111111" transform="translate(214,36)"/>
<path d="M0 0 C7.11909333 3.07852685 12.54289267 8.63566613 15.9375 15.5625 C17.09209604 19.29795777 17.20531418 21.29796358 16 25 C12.5878063 27.2747958 11.01038964 27.17105324 7.046875 26.52734375 C0.01208018 24.71494432 -5.5763422 18.07942402 -9.18359375 12.0078125 C-10.59581502 8.53469415 -10.30067125 5.72832351 -10 2 C-6.19355712 -0.53762859 -4.52642303 -0.51942559 0 0 Z " fill="#111111" transform="translate(305,141)"/>
<path d="M0 0 C7.92879348 3.17415154 13.87268082 8.50968001 18 16 C18.4375 19.25 18.4375 19.25 18 22 C14.15434323 24.56377118 12.58969584 24.5099662 8 24 C-0.14447309 21.18930704 -5.84841568 16.3617863 -10.203125 8.953125 C-11.38337701 6.06035047 -10.78880962 3.95803609 -10 1 C-6.73495651 -0.63252175 -3.52752247 -0.53575 0 0 Z " fill="#101010" transform="translate(293,86)"/>
<path d="M0 0 C4.33462212 1.43544582 8.03946354 3.46908496 11 7 C10.9375 9.5625 10.9375 9.5625 10 12 C5.81133168 14.64643532 1.80055293 14.51237429 -3 14 C-7.78886561 12.84696909 -12.1517098 11.21051595 -15 7 C-14.9375 4.375 -14.9375 4.375 -14 2 C-9.51558336 -0.9896111 -5.25840503 -0.59542649 0 0 Z " fill="#111111" transform="translate(127,0)"/>
<path d="M0 0 C2.375 1.875 2.375 1.875 3.4375 4.875 C3.375 7.875 3.375 7.875 2.1875 9.6875 C-1.82218879 12.31453748 -5.92155779 12.19387744 -10.625 11.875 C-14.11978128 10.78992678 -17.00365612 9.49634388 -19.625 6.875 C-19.5 3.875 -19.5 3.875 -18.625 0.875 C-13.26040562 -2.77048573 -5.88565557 -1.82658276 0 0 Z " fill="#111111" transform="translate(84.625,14.125)"/>
<path d="M0 0 C3.70564991 1.55169661 7.70874842 3.63051238 10 7 C10.375 9.5625 10.375 9.5625 10 12 C6.63845324 14.24103118 5.10679239 14.21889272 1.1953125 13.60546875 C-3.88258097 12.20498212 -7.82897291 9.49039811 -11.0625 5.375 C-12 3 -12 3 -11 0 C-7.49537706 -1.75231147 -3.73374316 -0.80052431 0 0 Z " fill="#111111" transform="translate(221,20)"/>
<path d="M0 0 C6.39042418 -0.66566918 9.93555805 1.15800955 15 5 C17 7 17 7 17.1875 9.5625 C17 12 17 12 16 13 C9.80597187 13.30571383 5.87139464 11.77308452 1.3125 7.66796875 C-0.18965672 5.75897791 -0.68849179 4.3995867 -1 2 C-0.67 1.34 -0.34 0.68 0 0 Z " fill="#111111" transform="translate(254,49)"/>
<path d="M0 0 C4.74057674 0.02567099 7.48210771 1.71723847 11.375 4.3125 C11.045 5.9625 10.715 7.6125 10.375 9.3125 C6.34979025 10.52006292 3.8242841 10.38199734 0.0625 8.6875 C-2.77733025 7.13209679 -3.4621657 6.72437499 -4.6875 3.625 C-4.5847037 -0.17846328 -3.95496946 0.34094564 0 0 Z " fill="#111111" transform="translate(170.625,3.6875)"/>
</svg>
